<?xml version="1.0" standalone="no"?>
<!DOCTYPE svg PUBLIC "-//W3C//DTD SVG 20010904//EN"
 "http://www.w3.org/TR/2001/REC-SVG-20010904/DTD/svg10.dtd">
<svg version="1.0" xmlns="http://www.w3.org/2000/svg"
 width="700.000000pt" height="700.000000pt" viewBox="0 0 700.000000 700.000000"
 preserveAspectRatio="xMidYMid meet">
<metadata>
Created by potrace 1.14, written by Peter Selinger 2001-2017
</metadata>
<g transform="translate(0.000000,700.000000) scale(0.100000,-0.100000)"
fill="#000000" stroke="none">
<path d="M3416 5522 c-66 -114 -156 -270 -201 -347 -177 -304 -254 -440 -255
-450 0 -6 215 -9 578 -10 l577 0 71 120 c55 93 492 853 511 888 2 4 -258 7
-579 7 l-583 0 -119 -208z"/>
<path d="M4822 5698 c-16 -27 -425 -734 -482 -833 -62 -110 -81 -145 -78 -146
14 -4 1152 -3 1157 1 8 5 75 119 265 450 65 113 142 246 171 295 94 161 145
252 145 258 0 4 -261 7 -579 7 l-579 0 -20 -32z"/>
<path d="M2820 4473 c-35 -60 -71 -124 -82 -143 -11 -19 -44 -75 -73 -125 -29
-49 -63 -110 -77 -135 -24 -42 -274 -475 -284 -492 -3 -4 258 -8 579 -8 l585
0 47 83 c26 45 59 102 73 126 13 25 38 68 55 95 31 53 52 89 88 154 56 98 294
510 307 530 l14 22 -585 0 -585 0 -62 -107z"/>
<path d="M4150 4518 c-19 -35 -39 -71 -45 -80 -5 -10 -119 -207 -252 -438
-134 -231 -243 -422 -243 -425 0 -3 262 -4 582 -3 l582 3 29 50 c33 57 357
617 394 683 13 23 53 93 89 154 35 61 64 112 64 114 0 2 -262 4 -583 4 l-582
0 -35 -62z"/>
<path d="M1000 3424 c0 -3 47 -86 105 -185 58 -99 105 -182 105 -184 0 -2 23
-40 50 -85 28 -45 50 -83 50 -85 0 -3 22 -42 49 -87 63 -108 88 -151 158 -275
l58 -103 583 0 c320 0 582 2 582 5 0 3 -32 60 -71 128 -40 67 -81 138 -92 157
-11 19 -71 125 -135 235 -64 110 -152 263 -196 340 l-81 140 -583 3 c-320 1
-582 0 -582 -4z"/>
<path d="M2309 3412 c5 -9 30 -53 57 -97 26 -44 52 -89 58 -100 24 -43 178
-311 186 -325 14 -22 173 -298 200 -345 12 -22 33 -59 47 -82 l25 -43 585 0
585 0 -20 33 c-33 53 -152 259 -152 263 0 1 -22 39 -50 84 -27 45 -50 83 -50
86 0 4 -186 327 -210 364 -5 8 -30 52 -55 98 l-46 82 -585 0 c-555 0 -584 -1
-575 -18z"/>
<path d="M1655 2280 c-3 -5 61 -118 285 -505 91 -158 252 -437 267 -465 l20
-35 581 -2 c320 -1 582 1 582 5 0 4 -8 21 -18 37 -10 17 -32 55 -49 85 -17 30
-54 96 -83 145 -29 50 -64 110 -78 135 -13 25 -28 50 -32 55 -5 6 -19 30 -32
55 -14 25 -34 61 -45 80 -11 19 -31 53 -43 75 -13 22 -33 56 -45 75 -12 19
-51 86 -86 148 -35 61 -68 112 -74 113 -41 4 -1148 3 -1150 -1z"/>
<path d="M2982 2230 c17 -30 39 -68 49 -85 10 -16 26 -46 37 -65 23 -42 42
-75 113 -195 29 -49 62 -108 74 -130 13 -22 71 -123 130 -225 59 -102 117
-201 128 -222 l20 -36 583 -1 c321 -1 584 0 584 3 0 3 -34 62 -75 131 -41 70
-75 129 -75 131 0 2 -17 32 -38 66 -21 35 -52 88 -69 118 -60 109 -315 545
-324 555 -6 5 -233 9 -589 10 l-579 0 31 -55z"/>
</g>
</svg>
