<?xml version="1.0" standalone="no"?>
<!DOCTYPE svg PUBLIC "-//W3C//DTD SVG 20010904//EN"
 "http://www.w3.org/TR/2001/REC-SVG-20010904/DTD/svg10.dtd">
<svg version="1.0" xmlns="http://www.w3.org/2000/svg"
 width="700.000000pt" height="700.000000pt" viewBox="0 0 700.000000 700.000000"
 preserveAspectRatio="xMidYMid meet">
<metadata>
Created by potrace 1.14, written by Peter Selinger 2001-2017
</metadata>
<g transform="translate(0.000000,700.000000) scale(0.100000,-0.100000)"
fill="#000000" stroke="none">
<path d="M3558 6512 c-8 -2 -24 -18 -34 -37 -10 -19 -43 -76 -73 -127 -30 -51
-62 -106 -71 -123 -39 -67 -110 -191 -358 -620 -208 -360 -256 -451 -243 -455
13 -5 1502 -5 1548 -1 6 1 46 61 88 134 42 72 80 139 85 147 27 42 250 432
250 436 0 3 8 17 19 32 32 47 346 597 346 607 0 8 -1514 15 -1557 7z"/>
<path d="M5306 6500 c-7 -8 -68 -112 -136 -230 -265 -460 -413 -717 -441 -763
-16 -26 -29 -50 -29 -53 0 -3 -16 -30 -35 -60 -19 -30 -35 -57 -35 -59 0 -3
-10 -22 -23 -43 -13 -20 -37 -62 -54 -92 l-32 -55 789 0 789 0 87 150 c48 83
107 184 131 225 229 391 569 986 566 990 -2 2 -355 4 -784 5 -682 0 -782 -2
-793 -15z"/>
<path d="M2571 4798 c-51 -90 -102 -175 -112 -190 -11 -15 -19 -30 -19 -33 0
-3 -56 -101 -124 -218 -68 -116 -134 -230 -146 -252 -12 -22 -80 -140 -151
-263 -72 -122 -132 -228 -135 -236 -4 -12 117 -14 780 -14 l786 0 49 82 c47
78 189 324 348 599 42 72 100 175 131 227 30 52 63 111 74 130 11 19 53 91 93
160 40 69 78 135 84 148 l12 22 -789 0 -788 0 -93 -162z"/>
<path d="M4417 4938 c-26 -41 -131 -222 -150 -258 -11 -19 -34 -60 -52 -90
-18 -30 -77 -131 -130 -225 -54 -93 -148 -255 -208 -360 -60 -104 -121 -210
-135 -235 -13 -25 -28 -49 -32 -55 -4 -5 -21 -35 -39 -67 l-31 -56 790 0 790
0 40 72 c22 39 55 96 73 127 17 30 69 120 115 200 46 79 88 151 93 159 11 18
132 228 166 287 13 24 86 151 162 283 l139 240 -789 0 -789 0 -13 -22z"/>
<path d="M110 3403 c0 -3 8 -17 18 -31 10 -15 43 -70 73 -122 30 -52 59 -102
64 -111 6 -9 19 -32 29 -50 10 -19 134 -234 276 -479 141 -245 271 -471 289
-502 18 -32 36 -60 41 -63 8 -5 251 -6 1303 -5 175 0 267 4 267 10 0 6 -11 27
-24 48 -13 20 -184 315 -380 656 -197 340 -362 626 -368 636 -10 16 -60 17
-799 17 -434 1 -789 -1 -789 -4z"/>
<path d="M1880 3402 c0 -6 98 -180 120 -212 10 -14 31 -50 47 -80 17 -30 47
-84 68 -120 20 -36 45 -78 55 -95 9 -16 51 -88 92 -160 42 -71 85 -146 96
-165 11 -19 52 -91 92 -160 40 -69 81 -141 92 -160 11 -19 43 -74 71 -122 l51
-88 113 0 c62 0 331 0 598 0 956 0 865 -2 858 18 -4 9 -9 19 -12 22 -4 3 -12
16 -19 30 -7 14 -18 34 -25 45 -7 11 -41 70 -75 130 -35 61 -67 117 -73 125
-19 31 -315 546 -322 560 -3 8 -62 110 -129 225 l-123 210 -788 1 c-433 1
-787 -1 -787 -4z"/>
<path d="M1003 1848 c-3 -6 84 -164 187 -338 19 -32 358 -618 400 -692 25 -43
78 -135 118 -206 l74 -127 788 0 788 0 -18 36 c-10 19 -49 87 -86 150 -37 63
-80 139 -97 169 -17 30 -40 71 -52 90 -12 19 -39 67 -60 105 -21 39 -44 77
-51 86 -8 8 -14 18 -14 21 0 3 -36 66 -79 141 -43 74 -90 154 -103 178 -46 81
-221 384 -225 389 -7 8 -1565 6 -1570 -2z"/>
<path d="M2760 1852 c0 -2 32 -58 70 -124 39 -66 70 -123 70 -126 0 -3 6 -13
14 -21 7 -9 27 -41 43 -71 16 -30 133 -233 258 -450 126 -217 251 -434 278
-482 29 -52 56 -88 66 -89 47 -3 1561 -3 1561 0 0 11 -765 1338 -781 1356 -9
9 -1579 16 -1579 7z"/>
</g>
</svg>
