<?xml version="1.0" encoding="UTF-8" standalone="no"?>
<!-- Created with Inkscape (http://www.inkscape.org/) -->

<svg
   width="137.84363"
   height="19.332001"
   viewBox="0 0 36.471126 5.1149252"
   version="1.1"
   id="svg5"
   xml:space="preserve"
   xmlns="http://www.w3.org/2000/svg"
   xmlns:svg="http://www.w3.org/2000/svg"><defs
     id="defs2" /><g
     id="layer1"
     transform="translate(138.35684,239.97641)"><g
       id="g127"
       transform="matrix(0.05931391,0,0,0.05931391,-139.49714,-241.43648)"><path
         id="path163"
         style="fill:#7dc4e4;stroke-width:0"
         d="m 68.397099,24.616 -11.29824,19.568623 22.59604,-2.52e-4 11.297662,-19.568292 z" /><path
         id="path116"
         style="fill:#91d7e3;stroke-width:0"
         d="M 93.646448,24.615914 82.348209,44.184536 104.94425,44.184284 116.24191,24.615993 Z" /><path
         id="path168"
         style="fill:#7dc4e4;stroke-width:0"
         d="M 55.772349,46.83804 44.47411,66.406669 67.070149,66.406418 78.367812,46.838119 Z" /><path
         id="path170"
         style="fill:#7dc4e4;stroke-width:0"
         d="M 81.021698,46.837954 69.723459,66.406581 92.319498,66.40633 103.61716,46.838033 Z" /><path
         id="path65"
         style="fill:#7dc4e4;stroke-width:0"
         d="M 43.147749,110.85066 31.84951,91.282051 l 22.59604,2.51e-4 11.297662,19.568288 z" /><path
         id="path67"
         style="fill:#91d7e3;stroke-width:0"
         d="m 68.397099,110.85075 -11.29824,-19.568611 22.59604,2.51e-4 11.297662,19.56829 z" /><path
         id="path69"
         style="fill:#7dc4e4;stroke-width:0"
         d="M 30.522999,88.628629 19.22476,69.060004 l 22.59604,2.5e-4 11.297662,19.568299 z" /><path
         id="path71"
         style="fill:#7dc4e4;stroke-width:0"
         d="M 55.772349,88.628716 44.47411,69.060091 l 22.596039,2.51e-4 11.297663,19.568299 z" /></g><g
       aria-label="Macchiato"
       id="text227"
       style="font-weight:bold;font-size:6.35px;line-height:1.25;font-family:'Victor Mono';-inkscape-font-specification:'Victor Mono Bold';fill:#cad3f5;stroke-width:0.264583"><path
         d="m -131.93274,-234.94257 h -0.66964 l 0.0866,-4.61818 h 0.61191 l 0.87746,2.16478 0.87745,-2.16478 h 0.61768 l 0.0808,4.61818 h -0.66386 l -0.0577,-2.8979 -0.57727,1.55863 h -0.55418 l -0.57728,-1.55863 z"
         id="path229" /><path
         d="m -127.65515,-234.86175 q -0.51377,0 -0.81973,-0.11545 -0.30018,-0.11546 -0.43873,-0.35791 -0.13277,-0.24823 -0.13277,-0.65809 0,-0.46182 0.13277,-0.71005 0.13855,-0.254 0.43296,-0.35213 0.30018,-0.10391 0.8255,-0.10391 h 0.72736 v -0.127 q 0,-0.24246 -0.0635,-0.37523 -0.0577,-0.13277 -0.21359,-0.18473 -0.15586,-0.0577 -0.45027,-0.0577 -0.24246,0 -0.36946,0.0519 -0.127,0.0462 -0.19627,0.17318 -0.0693,0.127 -0.13277,0.38677 l -0.635,-0.15586 q 0.10391,-0.40986 0.25977,-0.65809 0.15586,-0.24823 0.41564,-0.36368 0.25977,-0.12123 0.65809,-0.12123 0.75045,0 1.06795,0.32327 0.32328,0.3175 0.32328,0.98137 v 1.35082 q 0,0.23668 0.0462,0.31172 0.0462,0.0751 0.19627,0.0751 0.0462,0 0.20782,-0.0115 v 0.61191 q -0.0693,0.006 -0.1905,0.006 -0.50223,0 -0.69273,-0.23091 -0.15586,0.16741 -0.38677,0.23669 -0.23091,0.075 -0.5715,0.075 z m 0,-0.61191 q 0.29441,0 0.45027,-0.0693 0.15586,-0.0693 0.21359,-0.23668 0.0635,-0.16741 0.0635,-0.48491 v -0.28286 h -0.72736 q -0.32905,0 -0.46759,0.0346 -0.13855,0.0289 -0.19628,0.14432 -0.0577,0.10968 -0.0577,0.37523 0,0.21359 0.0577,0.32327 0.0577,0.10391 0.20782,0.15009 0.15587,0.0462 0.45605,0.0462 z"
         id="path231" /><path
         d="m -123.99525,-234.86175 q -0.57727,0 -0.91209,-0.18473 -0.33482,-0.1905 -0.48491,-0.59459 -0.14431,-0.40409 -0.14431,-1.08527 0,-0.68118 0.14431,-1.08527 0.15009,-0.40409 0.49069,-0.58882 0.34059,-0.1905 0.9294,-0.1905 0.50223,0 0.80241,0.17896 0.30019,0.17895 0.57728,0.635 l -0.55419,0.32904 q -0.14431,-0.22514 -0.24822,-0.33482 -0.10391,-0.10968 -0.23668,-0.15009 -0.127,-0.0462 -0.3406,-0.0462 -0.3579,0 -0.55418,0.11545 -0.1905,0.10969 -0.27132,0.37523 -0.075,0.26555 -0.075,0.762 0,0.49646 0.075,0.762 0.0808,0.26555 0.26555,0.381 0.18473,0.10968 0.53686,0.10968 0.20782,0 0.34059,-0.0462 0.13855,-0.0462 0.24823,-0.15586 0.11546,-0.11546 0.26555,-0.34059 l 0.54841,0.33482 q -0.28864,0.46181 -0.59459,0.64077 -0.30019,0.17895 -0.80819,0.17895 z"
         id="path233" /><path
         d="m -120.53161,-234.86175 q -0.57728,0 -0.91209,-0.18473 -0.33482,-0.1905 -0.48491,-0.59459 -0.14432,-0.40409 -0.14432,-1.08527 0,-0.68118 0.14432,-1.08527 0.15009,-0.40409 0.49068,-0.58882 0.34059,-0.1905 0.92941,-0.1905 0.50223,0 0.80241,0.17896 0.30018,0.17895 0.57727,0.635 l -0.55418,0.32904 q -0.14432,-0.22514 -0.24823,-0.33482 -0.10391,-0.10968 -0.23668,-0.15009 -0.127,-0.0462 -0.34059,-0.0462 -0.35791,0 -0.55418,0.11545 -0.1905,0.10969 -0.27132,0.37523 -0.0751,0.26555 -0.0751,0.762 0,0.49646 0.0751,0.762 0.0808,0.26555 0.26554,0.381 0.18473,0.10968 0.53687,0.10968 0.20782,0 0.34059,-0.0462 0.13854,-0.0462 0.24823,-0.15586 0.11545,-0.11546 0.26554,-0.34059 l 0.54841,0.33482 q -0.28864,0.46181 -0.59459,0.64077 -0.30018,0.17895 -0.80818,0.17895 z"
         id="path235" /><path
         d="m -118.48807,-234.94257 v -4.61818 h 0.66386 v 1.07373 q 0.31173,-0.10391 0.71005,-0.10391 0.51954,0 0.81973,0.1905 0.30018,0.1905 0.43295,0.61191 0.13277,0.42141 0.13277,1.14877 v 1.69718 h -0.66386 v -1.69718 q 0,-0.54263 -0.0693,-0.8255 -0.0635,-0.28863 -0.21359,-0.39832 -0.1501,-0.11545 -0.43873,-0.11545 -0.30596,0 -0.45605,0.0635 -0.14432,0.0635 -0.20204,0.23091 -0.052,0.16741 -0.052,0.52532 v 2.21672 z"
         id="path237" /><path
         d="m -113.22335,-238.51011 v 2.95564 h 1.01023 v 0.6119 h -2.68432 v -0.6119 h 1.01023 v -2.34373 h -0.72736 v -0.61191 z m -0.45604,-0.51955 q -0.28864,0 -0.39832,-0.0981 -0.10391,-0.10391 -0.10391,-0.37523 0,-0.27132 0.10391,-0.36945 0.10968,-0.10391 0.39832,-0.10391 0.28863,0 0.39832,0.10391 0.10968,0.0981 0.10968,0.36945 0,0.27132 -0.10968,0.37523 -0.10969,0.0981 -0.39832,0.0981 z"
         id="path239" /><path
         d="m -110.33699,-234.86175 q -0.51377,0 -0.81972,-0.11545 -0.30018,-0.11546 -0.43873,-0.35791 -0.13277,-0.24823 -0.13277,-0.65809 0,-0.46182 0.13277,-0.71005 0.13855,-0.254 0.43295,-0.35213 0.30019,-0.10391 0.8255,-0.10391 h 0.72737 v -0.127 q 0,-0.24246 -0.0635,-0.37523 -0.0577,-0.13277 -0.21359,-0.18473 -0.15587,-0.0577 -0.45028,-0.0577 -0.24245,0 -0.36945,0.0519 -0.127,0.0462 -0.19627,0.17318 -0.0693,0.127 -0.13278,0.38677 l -0.635,-0.15586 q 0.10391,-0.40986 0.25978,-0.65809 0.15586,-0.24823 0.41563,-0.36368 0.25978,-0.12123 0.65809,-0.12123 0.75046,0 1.06796,0.32327 0.32327,0.3175 0.32327,0.98137 v 1.35082 q 0,0.23668 0.0462,0.31172 0.0462,0.0751 0.19628,0.0751 0.0462,0 0.20781,-0.0115 v 0.61191 q -0.0693,0.006 -0.1905,0.006 -0.50222,0 -0.69272,-0.23091 -0.15587,0.16741 -0.38678,0.23669 -0.23091,0.075 -0.5715,0.075 z m 0,-0.61191 q 0.29441,0 0.45028,-0.0693 0.15586,-0.0693 0.21359,-0.23668 0.0635,-0.16741 0.0635,-0.48491 v -0.28286 h -0.72737 q -0.32904,0 -0.46759,0.0346 -0.13854,0.0289 -0.19627,0.14432 -0.0577,0.10968 -0.0577,0.37523 0,0.21359 0.0577,0.32327 0.0577,0.10391 0.20782,0.15009 0.15586,0.0462 0.45604,0.0462 z"
         id="path241" /><path
         d="m -106.40576,-234.86175 q -0.42141,0 -0.67541,-0.14432 -0.254,-0.14431 -0.37523,-0.45604 -0.11545,-0.3175 -0.11545,-0.83127 v -1.67409 h -0.71582 v -0.61191 h 0.71582 v -0.98137 h 0.66386 v 0.98137 h 1.19495 v 0.61191 h -1.19495 v 1.67409 q 0,0.32327 0.0462,0.50222 0.0462,0.17319 0.15009,0.24823 0.10968,0.0693 0.30596,0.0693 0.21359,0 0.30595,-0.0289 0.0981,-0.0289 0.13855,-0.10391 0.0462,-0.075 0.10391,-0.25977 l 0.62345,0.21359 q -0.0866,0.30018 -0.22514,0.47336 -0.13854,0.16741 -0.36368,0.24246 -0.21936,0.075 -0.58304,0.075 z"
         id="path243" /><path
         d="m -103.31736,-234.86175 q -0.53686,0 -0.84859,-0.1905 -0.30595,-0.1905 -0.4445,-0.59459 -0.13277,-0.40409 -0.13277,-1.0795 0,-0.67541 0.13277,-1.0795 0.13855,-0.40409 0.4445,-0.59459 0.31173,-0.1905 0.84859,-0.1905 0.53687,0 0.84859,0.1905 0.31173,0.1905 0.4445,0.59459 0.13855,0.40409 0.13855,1.0795 0,0.67541 -0.13855,1.0795 -0.13277,0.40409 -0.4445,0.59459 -0.31172,0.1905 -0.84859,0.1905 z m 0,-0.61191 q 0.30018,0 0.46182,-0.10968 0.16741,-0.11545 0.23668,-0.381 0.0693,-0.27132 0.0693,-0.762 0,-0.49068 -0.0693,-0.75623 -0.0693,-0.27131 -0.23668,-0.381 -0.16164,-0.11545 -0.46182,-0.11545 -0.30018,0 -0.46182,0.11545 -0.16163,0.10969 -0.2309,0.381 -0.0693,0.26555 -0.0693,0.75623 0,0.49068 0.0693,0.762 0.0693,0.26555 0.2309,0.381 0.16164,0.10968 0.46182,0.10968 z"
         id="path245" /></g></g></svg>
